<svg xmlns="http://www.w3.org/2000/svg" width="26" height="19" viewBox="0 0 26 19">
  <metadata><?xpacket begin="﻿" id="W5M0MpCehiHzreSzNTczkc9d"?>
<x:xmpmeta xmlns:x="adobe:ns:meta/" x:xmptk="Adobe XMP Core 5.6-c138 79.159824, 2016/09/14-01:09:01        ">
   <rdf:RDF xmlns:rdf="http://www.w3.org/1999/02/22-rdf-syntax-ns#">
      <rdf:Description rdf:about=""/>
   </rdf:RDF>
</x:xmpmeta>
                                                                                                    
                                                                                                    
                                                                                                    
                                                                                                    
                                                                                                    
                                                                                                    
                                                                                                    
                                                                                                    
                                                                                                    
                                                                                                    
                                                                                                    
                                                                                                    
                                                                                                    
                                                                                                    
                                                                                                    
                                                                                                    
                                                                                                    
                                                                                                    
                                                                                                    
                                                                                                    
                           
<?xpacket end="w"?></metadata>
<defs>
    <style>
      .cls-1 {
        fill-rule: evenodd;
      }
    </style>
  </defs>
  <path id="Forma_1" data-name="Forma 1" class="cls-1" d="M1313.68,4171a2.3,2.3,0,0,0,1.52-.54l-7.37-6.85c-0.17.12-.34,0.24-0.51,0.35-0.55.37-1,.67-1.34,0.88a8.482,8.482,0,0,1-1.37.65,4.445,4.445,0,0,1-1.6.33h-0.02a4.445,4.445,0,0,1-1.6-.33,8.482,8.482,0,0,1-1.37-.65c-0.35-.21-0.79-0.51-1.34-0.88-0.16-.11-0.33-0.22-0.51-0.35l-7.37,6.85a2.3,2.3,0,0,0,1.52.54h21.36Zm-22.21-11.7a7.419,7.419,0,0,1-1.47-1.17v10.42l6.49-6.04Q1294.54,4161.25,1291.47,4159.3Zm23.08,0c-1.98,1.24-3.66,2.32-5.04,3.21l6.49,6.04v-10.42A8.065,8.065,0,0,1,1314.55,4159.3Zm-0.87-7.3h-21.36a2.14,2.14,0,0,0-1.72.7,2.609,2.609,0,0,0-.6,1.76,3.055,3.055,0,0,0,.8,1.84,7.03,7.03,0,0,0,1.7,1.56c0.32,0.21,1.32.85,2.97,1.92,0.89,0.57,1.67,1.08,2.34,1.51l1.46,0.95c0.05,0.03.12,0.08,0.22,0.15s0.23,0.15.4,0.26c0.31,0.21.57,0.39,0.78,0.52s0.46,0.27.76,0.43a3.935,3.935,0,0,0,.83.37,2.472,2.472,0,0,0,.73.12h0.02a2.472,2.472,0,0,0,.73-0.12,3.935,3.935,0,0,0,.83-0.37c0.3-.16.55-0.3,0.76-0.43s0.47-.31.78-0.52c0.17-.11.3-0.19,0.4-0.26s0.17-.12.22-0.15c0.31-.2.81-0.52,1.47-0.95,1.2-.77,2.97-1.92,5.32-3.43a6.7,6.7,0,0,0,1.77-1.66,3.438,3.438,0,0,0,.71-2.04,2.026,2.026,0,0,0-.69-1.53A2.332,2.332,0,0,0,1313.68,4152Z" transform="translate(-1290 -4152)"/>
</svg>
