<svg xmlns="http://www.w3.org/2000/svg" width="11" height="22" viewBox="0 0 11 22">
  <metadata><?xpacket begin="﻿" id="W5M0MpCehiHzreSzNTczkc9d"?>
<x:xmpmeta xmlns:x="adobe:ns:meta/" x:xmptk="Adobe XMP Core 5.6-c138 79.159824, 2016/09/14-01:09:01        ">
   <rdf:RDF xmlns:rdf="http://www.w3.org/1999/02/22-rdf-syntax-ns#">
      <rdf:Description rdf:about=""/>
   </rdf:RDF>
</x:xmpmeta>
                                                                                                    
                                                                                                    
                                                                                                    
                                                                                                    
                                                                                                    
                                                                                                    
                                                                                                    
                                                                                                    
                                                                                                    
                                                                                                    
                                                                                                    
                                                                                                    
                                                                                                    
                                                                                                    
                                                                                                    
                                                                                                    
                                                                                                    
                                                                                                    
                                                                                                    
                                                                                                    
                           
<?xpacket end="w"?></metadata>
<defs>
    <style>
      .cls-1 {
        fill-rule: evenodd;
      }
    </style>
  </defs>
  <path id="Forma_1" data-name="Forma 1" class="cls-1" d="M430.586,4166h-2.639c-2.964,0-4.879,2.12-4.879,5.41v2.5h-2.653a0.433,0.433,0,0,0-.415.45v3.62a0.43,0.43,0,0,0,.415.44h2.653v9.13a0.432,0.432,0,0,0,.414.45h3.461a0.432,0.432,0,0,0,.415-0.45v-9.13h3.1a0.43,0.43,0,0,0,.415-0.44v-3.62a0.483,0.483,0,0,0-.122-0.32,0.412,0.412,0,0,0-.293-0.13h-3.1v-2.12c0-1.01.225-1.53,1.45-1.53h1.777a0.433,0.433,0,0,0,.415-0.45v-3.36A0.439,0.439,0,0,0,430.586,4166Z" transform="translate(-420 -4166)"/>
</svg>
