<svg xmlns="http://www.w3.org/2000/svg" width="40.75" height="38.28" viewBox="0 0 40.75 38.28">
  <metadata><?xpacket begin="﻿" id="W5M0MpCehiHzreSzNTczkc9d"?>
<x:xmpmeta xmlns:x="adobe:ns:meta/" x:xmptk="Adobe XMP Core 5.6-c138 79.159824, 2016/09/14-01:09:01        ">
   <rdf:RDF xmlns:rdf="http://www.w3.org/1999/02/22-rdf-syntax-ns#">
      <rdf:Description rdf:about=""/>
   </rdf:RDF>
</x:xmpmeta>
                                                                                                    
                                                                                                    
                                                                                                    
                                                                                                    
                                                                                                    
                                                                                                    
                                                                                                    
                                                                                                    
                                                                                                    
                                                                                                    
                                                                                                    
                                                                                                    
                                                                                                    
                                                                                                    
                                                                                                    
                                                                                                    
                                                                                                    
                                                                                                    
                                                                                                    
                                                                                                    
                           
<?xpacket end="w"?></metadata>
<defs>
    <style>
      .cls-1 {
        fill-rule: evenodd;
      }
    </style>
  </defs>
  <path id="ic-aa" class="cls-1" d="M1204.38,2185.21h19a4.4,4.4,0,0,0,2.5-.74l11.62-11.68a2.735,2.735,0,0,0-1.92-4.67,2.7,2.7,0,0,0-1.92.8l-8.97,9.04,8.59-17.05a0.257,0.257,0,0,0,.02-0.05,1.414,1.414,0,0,1,1.77-.25,1.438,1.438,0,0,1,.68.87,1.3,1.3,0,0,1-.12,1.04,0.665,0.665,0,0,0-.09.34,0.687,0.687,0,0,0,.34.59,0.675,0.675,0,0,0,.93-0.25,1.391,1.391,0,0,1,1.92-.46,1.434,1.434,0,0,1,.59,1.92,0.675,0.675,0,0,0,.25.93,0.589,0.589,0,0,0,.34.1,0.67,0.67,0,0,0,.58-0.35h0.01a8.758,8.758,0,0,0,.82-6.87,9.4,9.4,0,0,0-4.35-5.44,8.874,8.874,0,0,0-12.35,3.08h0a0.7,0.7,0,0,0,.25.94,0.684,0.684,0,0,0,.93-0.25,1.394,1.394,0,0,1,1.94-.45,1.491,1.491,0,0,1,.69.87,1.34,1.34,0,0,1-.12,1.04,0.665,0.665,0,0,0-.09.34,0.687,0.687,0,0,0,.34.59,0.664,0.664,0,0,0,.92-0.25,1.4,1.4,0,0,1,1.93-.46,1.475,1.475,0,0,1,.68.87,1.34,1.34,0,0,1-.12,1.04,0.608,0.608,0,0,0-.08.27l-9.63,19.08h-17.88A2.735,2.735,0,0,0,1204.38,2185.21Zm27.71-27.92a2.857,2.857,0,0,0-2.31-.24,1.6,1.6,0,0,0-.05-0.21,2.817,2.817,0,0,0-1.31-1.68h0a2.984,2.984,0,0,0-.97-0.35,7.655,7.655,0,0,1,8.84-.6,7.78,7.78,0,0,1,3.91,8.02,2.739,2.739,0,0,0-.79-0.68,2.829,2.829,0,0,0-1.42-.38,2.893,2.893,0,0,0-.88.14,1.6,1.6,0,0,0-.05-0.21,2.857,2.857,0,0,0-3.61-1.92c-0.02-.07-0.03-0.14-0.05-0.21A2.893,2.893,0,0,0,1232.09,2157.29Zm-27.71,23.82h19.09l11.15-11.22a1.377,1.377,0,0,1,1.92,0,1.362,1.362,0,0,1,.39.96,1.386,1.386,0,0,1-.39.97l-11.47,11.55a3.12,3.12,0,0,1-1.69.48h-19A1.37,1.37,0,0,1,1204.38,2181.11Zm36.87,6.8-2-2.01-5.77-5.81,8.68-8.75a0.682,0.682,0,1,0-.96-0.97l-15.41,15.53h-24.15v3.41h39.08l0.48,0.49a0.709,0.709,0,0,0,.48.2,0.673,0.673,0,0,0,.48-0.2,0.682,0.682,0,0,0,0-.97Zm-8.73-6.86,4.81,4.85h-9.62Zm-29.53,6.9v-0.69h35.7l0.68,0.69h-36.38Zm3.4-28.03h1.4a5.536,5.536,0,0,0,1.1,2.66l-1,1a0.7,0.7,0,0,0,0,.97,0.709,0.709,0,0,0,.48.2,0.673,0.673,0,0,0,.48-0.2l1-1a5.418,5.418,0,0,0,2.65,1.11v1.41a0.675,0.675,0,1,0,1.35,0v-1.41a5.418,5.418,0,0,0,2.65-1.11l0.99,1a0.709,0.709,0,0,0,.48.2,0.673,0.673,0,0,0,.48-0.2,0.682,0.682,0,0,0,0-.97l-0.99-1a5.536,5.536,0,0,0,1.1-2.66h1.4a0.685,0.685,0,0,0,0-1.37h-1.4a5.5,5.5,0,0,0-1.1-2.66l0.99-1.01a0.679,0.679,0,0,0-.96-0.96l-0.99,1a5.418,5.418,0,0,0-2.65-1.11v-1.41a0.675,0.675,0,1,0-1.35,0v1.41a5.418,5.418,0,0,0-2.65,1.11l-0.99-1a0.679,0.679,0,0,0-.96.96l0.99,1.01a5.5,5.5,0,0,0-1.1,2.66h-1.4A0.685,0.685,0,0,0,1206.39,2159.92Zm6.78-4.79a4.105,4.105,0,1,1-4.07,4.1A4.095,4.095,0,0,1,1213.17,2155.13Z" transform="translate(-1201.63 -2151.72)"/>
</svg>
