<svg xmlns="http://www.w3.org/2000/svg" width="39.29" height="38.25" viewBox="0 0 39.29 38.25">
  <metadata><?xpacket begin="﻿" id="W5M0MpCehiHzreSzNTczkc9d"?>
<x:xmpmeta xmlns:x="adobe:ns:meta/" x:xmptk="Adobe XMP Core 5.6-c138 79.159824, 2016/09/14-01:09:01        ">
   <rdf:RDF xmlns:rdf="http://www.w3.org/1999/02/22-rdf-syntax-ns#">
      <rdf:Description rdf:about=""/>
   </rdf:RDF>
</x:xmpmeta>
                                                                                                    
                                                                                                    
                                                                                                    
                                                                                                    
                                                                                                    
                                                                                                    
                                                                                                    
                                                                                                    
                                                                                                    
                                                                                                    
                                                                                                    
                                                                                                    
                                                                                                    
                                                                                                    
                                                                                                    
                                                                                                    
                                                                                                    
                                                                                                    
                                                                                                    
                                                                                                    
                           
<?xpacket end="w"?></metadata>
<defs>
    <style>
      .cls-1 {
        fill-rule: evenodd;
      }
    </style>
  </defs>
  <path id="ic-eat" class="cls-1" d="M1206.34,1943.24c-0.33.33-.53,0.8,0.16,3.64,0.42,1.7,3.68,11.18,4.79,13.9,2.26,5.54,3.71,5.36,4.54,5.46a1.652,1.652,0,0,0,1.14-.27c0.92-.62,1.23-0.81,1.59-1.02,0.13-.07.26-0.15,0.43-0.25,1,1.62,2.24,4.14,3.44,6.58a63.705,63.705,0,0,0,4.62,8.45,3.58,3.58,0,0,0,2.39,1.53,3.3,3.3,0,0,0,3.13-1.6,3.231,3.231,0,0,0,.07-3.54c-1.41-2.14-22.07-29.02-25.17-32.71A0.771,0.771,0,0,0,1206.34,1943.24Zm24.97,35.63a1.821,1.821,0,0,1-1.68.93,2.2,2.2,0,0,1-1.39-.95,64.776,64.776,0,0,1-4.47-8.21,70.36,70.36,0,0,0-3.94-7.37,0.743,0.743,0,0,0-.52-0.32,0.818,0.818,0,0,0-.5.11c-0.5.32-1.72,1.04-2.68,1.69a0.125,0.125,0,0,1-.11.03c-0.51.26-.55-0.12-1.41-1.28-1.39-1.86-5.31-12.82-6.45-16.42-0.44-1.39.03-.62,0.38-0.18,3.73,4.74,21.48,27.95,22.85,30.03A1.8,1.8,0,0,1,1231.31,1978.87Zm11.12-28.35a0.755,0.755,0,0,0-1.06-.02c-1.9,1.83-3.68,3.6-5.1,5.03-0.37.37-.7,0.7-1,1.01l-1.41-1.4,5.94-5.69a0.722,0.722,0,0,0,.02-1.04,0.755,0.755,0,0,0-1.06-.02l-5.95,5.71-1.33-1.31,5.98-5.73a0.731,0.731,0,0,0,.02-1.04,0.764,0.764,0,0,0-1.06-.02l-5.99,5.75-1.29-1.28,6.48-6.21a0.73,0.73,0,0,0,.01-1.04,0.742,0.742,0,0,0-1.05-.01l-7.45,7.14c-1.91,1.83-1.76,4.51.31,6.99l-4.23,4.12a0.734,0.734,0,0,0-.02,1.05,0.849,0.849,0,0,0,.41.21,0.727,0.727,0,0,0,.64-0.2l4.25-4.13a5.993,5.993,0,0,0,2.86,1.31c0.13,0.03.26,0.04,0.4,0.06a4.313,4.313,0,0,0,3.4-1.03c0.52-.5,1.25-1.23,2.18-2.16,1.42-1.43,3.19-3.2,5.08-5.01A0.731,0.731,0,0,0,1242.43,1950.52Zm-10.54,7.77a4.612,4.612,0,0,1-2.83-1.38c-1.53-1.55-2.56-3.77-.99-5.41l6.14,6.08a0.9,0.9,0,0,1-.1.09A2.858,2.858,0,0,1,1231.89,1958.29Zm-12.05,9.89a0.743,0.743,0,0,0-1.05.06c-3,3.33-8.45,9.23-10.28,10.84a2.332,2.332,0,0,1-3.12-.33c-0.81-.84-0.69-1.9.33-2.92a92.2,92.2,0,0,1,9.26-7.68,0.724,0.724,0,0,0,.14-1.03,0.744,0.744,0,0,0-1.04-.14,91.987,91.987,0,0,0-9.42,7.81c-1.93,1.93-1.4,3.89-.36,4.97a4.217,4.217,0,0,0,2.31,1.21,3.474,3.474,0,0,0,2.89-.79c2.12-1.86,8.23-8.55,10.4-10.96A0.731,0.731,0,0,0,1219.84,1968.18Z" transform="translate(-1203.34 -1943.03)"/>
</svg>
