<svg xmlns="http://www.w3.org/2000/svg" width="38.53" height="38.28" viewBox="0 0 38.53 38.28">
  <metadata><?xpacket begin="﻿" id="W5M0MpCehiHzreSzNTczkc9d"?>
<x:xmpmeta xmlns:x="adobe:ns:meta/" x:xmptk="Adobe XMP Core 5.6-c138 79.159824, 2016/09/14-01:09:01        ">
   <rdf:RDF xmlns:rdf="http://www.w3.org/1999/02/22-rdf-syntax-ns#">
      <rdf:Description rdf:about=""/>
   </rdf:RDF>
</x:xmpmeta>
                                                                                                    
                                                                                                    
                                                                                                    
                                                                                                    
                                                                                                    
                                                                                                    
                                                                                                    
                                                                                                    
                                                                                                    
                                                                                                    
                                                                                                    
                                                                                                    
                                                                                                    
                                                                                                    
                                                                                                    
                                                                                                    
                                                                                                    
                                                                                                    
                                                                                                    
                                                                                                    
                           
<?xpacket end="w"?></metadata>
<defs>
    <style>
      .cls-1 {
        fill-rule: evenodd;
      }
    </style>
  </defs>
  <path id="ic-hotel" class="cls-1" d="M1672.27,1977.45h-1.93v-33.81a0.6,0.6,0,0,0-.64-0.64h-32.12a0.606,0.606,0,0,0-.65.64v33.81h-1.92a0.606,0.606,0,0,0-.65.64v2.55a0.612,0.612,0,0,0,.65.64h37.26a0.609,0.609,0,0,0,.64-0.64v-2.55A0.6,0.6,0,0,0,1672.27,1977.45Zm-34.05-33.17h30.83v33.17h-9.63v-7.02a0.609,0.609,0,0,0-.64-0.64H1648.5a0.612,0.612,0,0,0-.65.64v7.02h-9.63v-33.17Zm10.92,33.17v-6.38h3.85v6.38h-3.85Zm5.14-6.38h3.85v6.38h-3.85v-6.38Zm17.34,8.93h-35.97v-1.27h35.97V1980h0Zm-25.05-33.81h-5.14a0.6,0.6,0,0,0-.64.64v3.83a0.6,0.6,0,0,0,.64.63h5.14a0.6,0.6,0,0,0,.64-0.63v-3.83A0.6,0.6,0,0,0,1646.57,1946.19Zm-0.64,3.83h-3.86v-2.55h3.86v2.55Zm0.64,3.19h-5.14a0.6,0.6,0,0,0-.64.64v3.82a0.6,0.6,0,0,0,.64.64h5.14a0.6,0.6,0,0,0,.64-0.64v-3.82A0.6,0.6,0,0,0,1646.57,1953.21Zm-0.64,3.83h-3.86v-2.56h3.86v2.56Zm5.14,1.27h5.14a0.6,0.6,0,0,0,.64-0.64v-3.82a0.6,0.6,0,0,0-.64-0.64h-5.14a0.606,0.606,0,0,0-.65.64v3.82A0.606,0.606,0,0,0,1651.07,1958.31Zm0.64-3.83h3.85v2.56h-3.85v-2.56h0Zm8.99,3.83h5.14a0.6,0.6,0,0,0,.64-0.64v-3.82a0.6,0.6,0,0,0-.64-0.64h-5.14a0.6,0.6,0,0,0-.64.64v3.82A0.6,0.6,0,0,0,1660.7,1958.31Zm0.65-3.83h3.85v2.56h-3.85v-2.56Zm-10.28,10.85h5.14a0.609,0.609,0,0,0,.64-0.64v-3.83a0.6,0.6,0,0,0-.64-0.63h-5.14a0.6,0.6,0,0,0-.65.63v3.83A0.612,0.612,0,0,0,1651.07,1965.33Zm0.64-3.83h3.85v2.55h-3.85v-2.55h0Zm8.99,3.83h5.14a0.6,0.6,0,0,0,.64-0.64v-3.83a0.6,0.6,0,0,0-.64-0.63h-5.14a0.6,0.6,0,0,0-.64.63v3.83A0.609,0.609,0,0,0,1660.7,1965.33Zm0.65-3.83h3.85v2.55h-3.85v-2.55Zm-14.78-1.28h-5.14a0.6,0.6,0,0,0-.64.64v3.83a0.6,0.6,0,0,0,.64.64h5.14a0.6,0.6,0,0,0,.64-0.64v-3.83A0.6,0.6,0,0,0,1646.57,1960.22Zm-0.64,3.83h-3.86v-2.55h3.86v2.55Zm5.14-12.76h5.14a0.6,0.6,0,0,0,.64-0.63v-3.83a0.6,0.6,0,0,0-.64-0.64h-5.14a0.606,0.606,0,0,0-.65.64v3.83A0.6,0.6,0,0,0,1651.07,1951.29Zm0.64-3.82h3.85v2.55h-3.85v-2.55h0Zm8.99,3.82h5.14a0.6,0.6,0,0,0,.64-0.63v-3.83a0.6,0.6,0,0,0-.64-0.64h-5.14a0.6,0.6,0,0,0-.64.64v3.83A0.6,0.6,0,0,0,1660.7,1951.29Zm0.65-3.82h3.85v2.55h-3.85v-2.55Zm-11.57,21.05h7.71a0.64,0.64,0,1,0,0-1.28h-7.71A0.64,0.64,0,1,0,1649.78,1968.52Z" transform="translate(-1634.38 -1943)"/>
</svg>
