<svg xmlns="http://www.w3.org/2000/svg" width="48" height="37.56" viewBox="0 0 48 37.56">
  <metadata><?xpacket begin="﻿" id="W5M0MpCehiHzreSzNTczkc9d"?>
<x:xmpmeta xmlns:x="adobe:ns:meta/" x:xmptk="Adobe XMP Core 5.6-c138 79.159824, 2016/09/14-01:09:01        ">
   <rdf:RDF xmlns:rdf="http://www.w3.org/1999/02/22-rdf-syntax-ns#">
      <rdf:Description rdf:about=""/>
   </rdf:RDF>
</x:xmpmeta>
                                                                                                    
                                                                                                    
                                                                                                    
                                                                                                    
                                                                                                    
                                                                                                    
                                                                                                    
                                                                                                    
                                                                                                    
                                                                                                    
                                                                                                    
                                                                                                    
                                                                                                    
                                                                                                    
                                                                                                    
                                                                                                    
                                                                                                    
                                                                                                    
                                                                                                    
                                                                                                    
                           
<?xpacket end="w"?></metadata>
<defs>
    <style>
      .cls-1 {
        fill-rule: evenodd;
      }
    </style>
  </defs>
  <path id="ic-oto" class="cls-1" d="M1642.6,2183.24a1.565,1.565,0,1,0,1.6,1.56A1.584,1.584,0,0,0,1642.6,2183.24Zm20.8,0a1.565,1.565,0,1,0,1.6,1.56A1.584,1.584,0,0,0,1663.4,2183.24Zm16.8-8.61h-2.4v-2.35a0.8,0.8,0,0,0-1.6,0v2.35H1673v-18.86a3.022,3.022,0,0,0-3.04-3.05h-33.84a3.04,3.04,0,0,0-3.12,3.05v27.07a2.8,2.8,0,0,0,2.8,2.74h1.26a5.615,5.615,0,0,0,11.08,0h9.72a5.615,5.615,0,0,0,11.08,0H1673v-9.39h7.2A0.78,0.78,0,1,0,1680.2,2174.63Zm-45.6-6.26h11.2a0.78,0.78,0,1,0,0-1.56h-11.2v-2.35h8a0.745,0.745,0,0,0,.8-0.78,0.753,0.753,0,0,0-.8-0.79h-8v-7.12a1.45,1.45,0,0,1,1.52-1.48h33.76a1.5,1.5,0,0,1,1.52,1.48v18.86h-36.8v-6.26Zm8,20.34a3.911,3.911,0,1,1,4-3.91A3.917,3.917,0,0,1,1642.6,2188.71Zm20.8,0a3.911,3.911,0,1,1,4-3.91A3.917,3.917,0,0,1,1663.4,2188.71Zm8-4.69h-2.46a5.522,5.522,0,0,0-5.54-4.7h-0.08a5.563,5.563,0,0,0-5.52,4.7h-9.66a5.483,5.483,0,0,0-5.01-4.67,0.127,0.127,0,0,1-.06-0.01c-0.07,0-.13-0.01-0.2-0.01-0.09,0-.18-0.01-0.27-0.01s-0.18.01-.27,0.01c-0.07,0-.13.01-0.2,0.01a0.127,0.127,0,0,1-.06.01,5.483,5.483,0,0,0-5.01,4.67h-1.26a1.22,1.22,0,0,1-1.2-1.18v-6.65h36.8v7.83Z" transform="translate(-1633 -2152.72)"/>
</svg>
