<svg xmlns="http://www.w3.org/2000/svg" width="20" height="19" viewBox="0 0 20 19">
  <metadata><?xpacket begin="﻿" id="W5M0MpCehiHzreSzNTczkc9d"?>
<x:xmpmeta xmlns:x="adobe:ns:meta/" x:xmptk="Adobe XMP Core 5.6-c138 79.159824, 2016/09/14-01:09:01        ">
   <rdf:RDF xmlns:rdf="http://www.w3.org/1999/02/22-rdf-syntax-ns#">
      <rdf:Description rdf:about=""/>
   </rdf:RDF>
</x:xmpmeta>
                                                                                                    
                                                                                                    
                                                                                                    
                                                                                                    
                                                                                                    
                                                                                                    
                                                                                                    
                                                                                                    
                                                                                                    
                                                                                                    
                                                                                                    
                                                                                                    
                                                                                                    
                                                                                                    
                                                                                                    
                                                                                                    
                                                                                                    
                                                                                                    
                                                                                                    
                                                                                                    
                           
<?xpacket end="w"?></metadata>
<defs>
    <style>
      .cls-1 {
        fill-rule: evenodd;
      }
    </style>
  </defs>
  <path id="Forma_1" data-name="Forma 1" class="cls-1" d="M535,4179.65V4187h-4.287v-6.86c0-1.72-.62-2.9-2.171-2.9a2.341,2.341,0,0,0-2.2,1.56,2.94,2.94,0,0,0-.142,1.04V4187h-4.288s0.058-11.62,0-12.82H526.2V4176c-0.009.01-.02,0.03-0.029,0.04H526.2V4176a4.246,4.246,0,0,1,3.864-2.12C532.885,4173.88,535,4175.71,535,4179.65ZM517.426,4168a2.222,2.222,0,1,0-.056,4.43H517.4A2.223,2.223,0,1,0,517.426,4168Zm-2.171,19h4.286v-12.82h-4.286V4187Z" transform="translate(-515 -4168)"/>
</svg>
