<svg xmlns="http://www.w3.org/2000/svg" width="14.843" height="14.84" viewBox="0 0 14.843 14.84">
  <metadata><?xpacket begin="﻿" id="W5M0MpCehiHzreSzNTczkc9d"?>
<x:xmpmeta xmlns:x="adobe:ns:meta/" x:xmptk="Adobe XMP Core 5.6-c138 79.159824, 2016/09/14-01:09:01        ">
   <rdf:RDF xmlns:rdf="http://www.w3.org/1999/02/22-rdf-syntax-ns#">
      <rdf:Description rdf:about=""/>
   </rdf:RDF>
</x:xmpmeta>
                                                                                                    
                                                                                                    
                                                                                                    
                                                                                                    
                                                                                                    
                                                                                                    
                                                                                                    
                                                                                                    
                                                                                                    
                                                                                                    
                                                                                                    
                                                                                                    
                                                                                                    
                                                                                                    
                                                                                                    
                                                                                                    
                                                                                                    
                                                                                                    
                                                                                                    
                                                                                                    
                           
<?xpacket end="w"?></metadata>
<defs>
    <style>
      .cls-1 {
        fill-rule: evenodd;
      }
    </style>
  </defs>
  <path id="ic-phone" class="cls-1" d="M419.451,4041.72H409.288a2.342,2.342,0,0,0-2.339,2.34v10.17a2.342,2.342,0,0,0,2.339,2.34h10.163a2.341,2.341,0,0,0,2.34-2.34v-10.17A2.341,2.341,0,0,0,419.451,4041.72Zm-5.305,1.55,0.163,2.56-0.591.18-0.284-2.81Zm2.538,11.6-2.593-.06a13.117,13.117,0,0,1-3.584-9.91l1.951-1.67h0.384l0.312,2.93-0.853.56,2.182,5.73,0.856-.28,1.64,2.45Zm0.823-.55-1.736-2.4,0.658-.29,1.513,2.26Z" transform="translate(-406.938 -4041.72)"/>
</svg>
