<svg xmlns="http://www.w3.org/2000/svg" width="21" height="17" viewBox="0 0 21 17">
  <metadata><?xpacket begin="﻿" id="W5M0MpCehiHzreSzNTczkc9d"?>
<x:xmpmeta xmlns:x="adobe:ns:meta/" x:xmptk="Adobe XMP Core 5.6-c138 79.159824, 2016/09/14-01:09:01        ">
   <rdf:RDF xmlns:rdf="http://www.w3.org/1999/02/22-rdf-syntax-ns#">
      <rdf:Description rdf:about=""/>
   </rdf:RDF>
</x:xmpmeta>
                                                                                                    
                                                                                                    
                                                                                                    
                                                                                                    
                                                                                                    
                                                                                                    
                                                                                                    
                                                                                                    
                                                                                                    
                                                                                                    
                                                                                                    
                                                                                                    
                                                                                                    
                                                                                                    
                                                                                                    
                                                                                                    
                                                                                                    
                                                                                                    
                                                                                                    
                                                                                                    
                           
<?xpacket end="w"?></metadata>
<defs>
    <style>
      .cls-1 {
        fill-rule: evenodd;
      }
    </style>
  </defs>
  <path id="Forma_1" data-name="Forma 1" class="cls-1" d="M585.421,4169.31a8.658,8.658,0,0,1-2.738,1.05,4.305,4.305,0,0,0-7.341,3.91,12.243,12.243,0,0,1-8.879-4.49,4.287,4.287,0,0,0,1.333,5.73,4.287,4.287,0,0,1-1.951-.53v0.05a4.3,4.3,0,0,0,3.455,4.21,4.24,4.24,0,0,1-1.134.15,4.341,4.341,0,0,1-.812-0.08,4.3,4.3,0,0,0,4.024,2.98,8.718,8.718,0,0,1-6.378,1.78,12.259,12.259,0,0,0,18.861-10.28l-0.014-.56a8.608,8.608,0,0,0,2.153-2.22,8.9,8.9,0,0,1-2.473.68A4.331,4.331,0,0,0,585.421,4169.31Z" transform="translate(-565 -4169)"/>
</svg>
