<svg xmlns="http://www.w3.org/2000/svg" width="15" height="15" viewBox="0 0 15 15">
  <metadata><?xpacket begin="﻿" id="W5M0MpCehiHzreSzNTczkc9d"?>
<x:xmpmeta xmlns:x="adobe:ns:meta/" x:xmptk="Adobe XMP Core 5.6-c138 79.159824, 2016/09/14-01:09:01        ">
   <rdf:RDF xmlns:rdf="http://www.w3.org/1999/02/22-rdf-syntax-ns#">
      <rdf:Description rdf:about=""/>
   </rdf:RDF>
</x:xmpmeta>
                                                                                                    
                                                                                                    
                                                                                                    
                                                                                                    
                                                                                                    
                                                                                                    
                                                                                                    
                                                                                                    
                                                                                                    
                                                                                                    
                                                                                                    
                                                                                                    
                                                                                                    
                                                                                                    
                                                                                                    
                                                                                                    
                                                                                                    
                                                                                                    
                                                                                                    
                                                                                                    
                           
<?xpacket end="w"?></metadata>
<defs>
    <style>
      .cls-1 {
        fill-rule: evenodd;
      }
    </style>
  </defs>
  <path id="ic-web" class="cls-1" d="M414.5,4121.01a7.5,7.5,0,1,1,7.5-7.5A7.492,7.492,0,0,1,414.5,4121.01Zm5.432-3.83a6.5,6.5,0,0,0,1.108-3.2h-3.75a17.939,17.939,0,0,1-.235,2.54A16.853,16.853,0,0,1,419.927,4117.18Zm-7.284-3.2a16.4,16.4,0,0,0,.241,2.42c0.527-.05,1.064-0.07,1.611-0.07s1.084,0.02,1.611.07a16.4,16.4,0,0,0,.241-2.42h-3.7Zm3.7-.93a16.4,16.4,0,0,0-.241-2.42c-0.527.04-1.064,0.07-1.611,0.07s-1.083-.03-1.61-0.07a16.262,16.262,0,0,0-.242,2.42h3.7Zm2.935,4.94a16.464,16.464,0,0,0-2.415-.55,15.076,15.076,0,0,1-.763,2.43A6.561,6.561,0,0,0,419.282,4117.99Zm-5.242,2.06c0.151,0.01.3,0.03,0.455,0.03s0.3-.02.455-0.03a14.006,14.006,0,0,0,.961-2.73c-0.466-.04-0.938-0.07-1.416-0.07s-0.949.03-1.415,0.07A14,14,0,0,0,414.04,4120.05Zm-1.153-.18a15.177,15.177,0,0,1-.764-2.43,16.421,16.421,0,0,0-2.414.55A6.561,6.561,0,0,0,412.887,4119.87Zm-0.947-3.35a18.087,18.087,0,0,1-.235-2.54h-3.75a6.492,6.492,0,0,0,1.109,3.2A16.841,16.841,0,0,1,411.94,4116.52Zm-2.876-6.68a6.529,6.529,0,0,0-1.109,3.21h3.75a17.948,17.948,0,0,1,.235-2.54A15.947,15.947,0,0,1,409.064,4109.84Zm0.645-.8a16.421,16.421,0,0,0,2.414.55,15.177,15.177,0,0,1,.764-2.43A6.561,6.561,0,0,0,409.709,4109.04Zm5.241-2.06c-0.151-.01-0.3-0.03-0.455-0.03s-0.3.02-.455,0.03a14,14,0,0,0-.96,2.73c0.466,0.04.937,0.07,1.415,0.07s0.95-.03,1.416-0.07A14.006,14.006,0,0,0,414.95,4106.98Zm1.154,0.18a15.076,15.076,0,0,1,.763,2.43,16.464,16.464,0,0,0,2.415-.55A6.561,6.561,0,0,0,416.1,4107.16Zm0.946,3.35a17.8,17.8,0,0,1,.235,2.54h3.75a6.537,6.537,0,0,0-1.108-3.21A15.958,15.958,0,0,1,417.05,4110.51Z" transform="translate(-407 -4106)"/>
</svg>
